/* XPM */
static char *_1e5036dea4f4442cfd760a29da66137pVEvVPyw4E5sWcG8[] = {
/* columns rows colors chars-per-pixel */
"32 32 25 1 ",
"  c #003A00",
". c #003F00",
"X c #004300",
"o c #004500",
"O c #004B00",
"+ c #004C00",
"@ c #005200",
"# c #005500",
"$ c #005B00",
"% c #005D00",
"& c #006100",
"* c #006700",
"= c #006800",
"- c #006E00",
"; c #007000",
": c #007500",
"> c #007900",
", c #007E00",
"< c #008000",
"1 c #008500",
"2 c #008A00",
"3 c #008C00",
"4 c #008F00",
"5 c #F0E319",
"6 c #EBE024",
/* pixels */
".>%=$&#$*&#=+%#=*%=$-,=+#%*@#%$=",
".==;$$#+,@%#&#X&*#=$%;@%%%&@.*O-",
"+-;*;@@%<%*$%&$*:$,=#&#>:*;%o@.-",
"&%:%;++#:O;&==&&;==>$O%=-%:O%%X*",
"%*>&4=.%%$%#O>:**;@%-#,&*&>&*#+*",
"&%;-;:@O+$O+O:&$$,.&;$;#%+:;;-&>",
"+$-=&>*#.-$X#<**%;+=2@*&#%=<;=&=",
"#O==+&*+#*%@&*#**:+>;O@*O$+1<;&@",
"OO<$$oO=;%=%==&:&;$,*o=%o;@<>%+#",
"#%>%%@.=;+@#%&@-@=%=o*:%+,#<%*O=",
"@*,X%*o>%XO#$-#&#&**+*,@&:$=@%#:",
"o*-$*:$&..@%#*%$@#*@.-:X=;o*%-&=",
"o=>%@=o$. %#*;*@&$%@@&&.--@%=&>*",
"@&-&&$#$. *$;>%@#-@#@>=$%1%#>#*;",
"&*;&*o%%o.;5=,+#**$@#=%-#2@@,o#<",
"-o;@,o:=# -&;;+$$;+#o;;2O4&@4OX1",
";@;&;X:%+.<O#6X#%#&OO$%2%1+$2X 2",
"&&%#<O=$&O&@#;#$&$#&+=*;@=+&2XX>",
"**&%>+$%&6*O#*%=;O%$*-$==%o;1@ *",
"&&+O,@%@%=O+;&:-<&%%:*=#=o$&:%+*",
"*%=+*+%&#&@+>$-->:&o-$$@<+&$&*$&",
"@=$+*@*#$@O@,$;==,%@$++o*+&@$@*=",
"@-;*++$=%&@#*#%$%%$+@#X$*O%=Oo%=",
"+;@:&$@=%$%=-*%=*&#&%*X*#&@%%$&;",
"@%@=#&%-*@$*#%O=-+=-%#o;-*@-+$*=",
"$=++*:@#-$-:%*%=%*;;++o*#,+&$;:%",
"-@@+&>*o=%:=@%%*%%;*+X+#@:%-@**@",
"-%%$&<$.#%>%O$-&$-*$##+%@;+-$$;&",
"=&O&&-:#&.;##+@-;=%==&@&&=O>#o$%",
"%>@#%-&&=@%+&@X&;%%*%##:-%#1+O##",
"$<@O=$**:$-%,=X*$%&=+***-**<o$#%",
"&:%@>&+%;>;#=>+;O&;OO=$;%;=<O@&*"
};