/* XPM */
static char *_577cd4ce86b40219d17fce39035e07fYHNrK6VxwUsb0LeI[] = {
/* columns rows colors chars-per-pixel */
"32 32 9 1 ",
"  c black",
". c #101010",
"X c #202020",
"o c gray19",
"O c gray25",
"+ c #505050",
"@ c #606060",
"# c gray44",
"$ c #808080",
/* pixels */
"#$$#.@@@$#@$#X@#$#$$@@X#$#@##$@.",
"@OOoX+Oo+XooOX+oOoooOo.+oO+OOooX",
"#ooo.@ooOoO+o.@oO+oO+o.+O+OoXoO.",
"$oOX.@Oo+OoOoX@OooX+oo..X..X..X.",
"$X+o.+oOo+OoX.+oXOOoOoOo.++@+@+.",
"@oOOX....X....@OooooXO+O.+oOoO+X",
"#ooXXo.++@++O.+OOXOooOOO.@OO+Oo.",
"$+OoOOX@OoOOX.@oooO++o+oX@+OO+o.",
"@oOoOo.+oo+ooX@OXXoOOoOo.@o+OoX.",
"#oXOoX.@OoOoX.+ooOXoOOOO.+XOooO.",
".XX.XX.+O+oOo.OoOoOoXoOoX+OXoXoX",
"@@+@++X@XOOoX..XX..X....X...X...",
"#O+ooo.@oO+OoOoo.+@+@++@+@@++@+.",
"$Ooo+X.@+oOoXoOoX+oo+XooXO+oOoo.",
"#oOo+oX+OOOXO+OO.+oOOoOOoOOO+OOX",
"$OOOoO.+O+ooOoOo.@O+oOXoXooOoO+.",
"#O+oXo.OooOXoOoOX++O+ooOOoOoXooX",
"@OOooO..X..X..X..@OooOX...X..X..",
"#ooOOooO.+@++@++X@OOoXX.++@+@++.",
"@OOoooOo.+OoOooO.+oXOOoX+OooXOO.",
"$O+oXO+XX@oO+O+XX+XoOoX.@oOOoO+.",
"#OooOoOX.+ooX+OX.+oOoXoX@o+oO+o.",
"$+O+OoOo.@O+o.......X...@XOooOX.",
"#ooOOXooX+ooX.++@+@+.+@+OooOOoO.",
"@oXXoooX.+OXo.+OoOoO.@oXoOOXoOoX",
"X...X.X..X....+O+OoX.+XOOoXooOo.",
"@+@+.++@@++@+.@oOoOoX+oOoooOOoX.",
"#oXOX+oOoOo+O.+oOXoO....X.X..X..",
"$+Oo.@OoO+XoX.@O+OXoOo.+@++@+@+X",
"#OoO.@O+Ooo+O.+oOooOoX.@OooOooOX",
"$oO+.+oXo+Ooo.+ooOOooO.+oOXo+Oo.",
"                                "
};
