/* XPM */
static char *a954beedea95482a8fcdc4d31e48a815pLrCJoZlDYoQqiKx[] = {
/* columns rows colors chars-per-pixel */
"32 32 6 1 ",
"  c None",
". c #3E2731",
"X c #733E39",
"o c #BE4A2F",
"O c #B86F50",
"+ c #E4A672",
/* pixels */
"                                ",
"                                ",
"                                ",
"                                ",
"                                ",
"                                ",
"            OOOOOOOOOO          ",
"          XOOOOOOOOOOOOX        ",
"         XXOOOOOOOOOO+OXX       ",
"        XXXOOOOOOOOOO+OXoX      ",
"        X.XOOOOOOOO++OOXXX      ",
"       X..XXOOOOOOOOOOXXoXX     ",
"       X..XXXXXXXXXXXXXXXoX     ",
"       X..XXXXXXXoXXXXooXoX     ",
"       X..X.X.XXXoXoXoooXoX     ",
"       X....X.XoXXXoXoooXoX     ",
"       X....X.XoXoXoXoooXXX     ",
"       X..X.X.XoXoXoXoooXoX     ",
"       X..X.X.XoXoXoXoXoXXX     ",
"        X.X.X.XXXoXoXoXXXX      ",
"        X.X.X.XoXXXoXoXoXX      ",
"         X..X.XXXXXoXoXXX       ",
"          XX..XXXoXoXXXX        ",
"            XX.XXXXXXX          ",
"              XXXXXX            ",
"                                ",
"                                ",
"                                ",
"                                ",
"                                ",
"                                ",
"                                "
};
