/* XPM */
static char *e586350339ef48e3bdf766c4f031884bRb2o9lTRt46FbFqC[] = {
/* columns rows colors chars-per-pixel */
"32 32 26 1 ",
"  c None",
". c black",
"X c gray4",
"o c #151515",
"O c gray10",
"+ c #2D1A18",
"@ c #381F1B",
"# c #382D1B",
"$ c #202020",
"% c gray13",
"& c #2D2D2D",
"* c gray19",
"= c #393939",
"- c #4F2A25",
"; c #4F3F25",
": c #68362F",
"> c #68522F",
", c #7F4038",
"< c #7F6338",
"1 c gray27",
"2 c #515151",
"3 c #5D5D5D",
"4 c #686868",
"5 c #977541",
"6 c #AC864A",
"7 c #C49852",
/* pixels */
"2324213432321323132121=11==&&&.%",
"42421123124311332343311==1==&&.O",
"233123313==oo%%%%oo&=221=11==&X*",
"431243==&oo+++O@+++oo&=211=1=&.%",
"42231==&o++@+@O-@@+++o&=211=1&o*",
"3421=&oo+++-+@O:-@+@++oo===11&X%",
"234=&o++@++-@@O:-@+-++++o&=&=&o.",
"341&%+++@@+-@-O:--+-@+@++o&=&=X%",
"21=o+@@+-@+:@-O,--@--@@-++o=1&o.",
"42o+@-@+-@@:@-O,-:@:-@--+#+1==o.",
"21o+@--@:-@:-:O,-:@:-@:-+-+3=1o.",
"34X@-:-@:-@:-:O,-:@:--::@-+4&&o$",
"31X@-::@::-:-:O,-:-::-::-:@4=&o*",
"32o<-::-::-:-:O,::-::-::::<4=&X*",
"2=%>6777766655#75677766655>31=X$",
"=&o;;;>>>>>;;;#5;;>>>>>>;;;31&X$",
"&=o#++@++@++++O:@@++@++@+@#4=&o.",
"=&X+++-++@-+@+O:--+@-+@@+-+21=o.",
"1=X+-+-+@--@-@O,:-@@-+@-+-@421X%",
"21X@:@-@@-:@--O,:-@-:@--@-@322X.",
"31o@:-:@-::@-:O,:--::--:-:@2=2.%",
"32o<:::--::-::O:::::::::::<3=2X.",
"24%>5777666655#75677766665>2=1o%",
"12o;;;>>>>>;;;#5;;>>>;;;;;;2&=OO",
"=4%#@@++++++++O:@+++@@@+++#2&=X*",
"=2o@:::-::::::O,::::::::::@2&&.%",
"=1o@--:@::--:-O,-:-:-:-:-:@1&&X*",
"==o+--:@:-@-:@O,----@--:@-+1%&o%",
"==%+-@-@-@+@-@O:@-@-+@@-+#+=%%XO",
"&%o@@+@++@+@@+O:+@+@+@+@+++=%%o*",
"oXX........................oXoX%",
"              ..                "
};
