/* XPM */
static char *_d75300dc0ec48acaf6f09439c3bf9f0r997ySkrW9WHs0qm[] = {
/* columns rows colors chars-per-pixel */
"32 32 8 1 ",
"  c None",
". c black",
"X c #424465",
"o c #CC6C42",
"O c #626F8A",
"+ c #C3B6A9",
"@ c #FECD8E",
"# c white",
/* pixels */
"                                ",
"                                ",
"                                ",
"                                ",
"                                ",
"         .....                  ",
"        .XXXXX.                 ",
"     .....XXXXX.                ",
"    .OOOOO..XXX.                ",
"    .OOOOOOO.XXX.               ",
"    .OO#####+.XX.               ",
"    .OO#####+......             ",
"     .OO#####+.OOOO.            ",
"     .OO######OOOOOO.           ",
"     .OOOOO##OOOOOOOO..         ",
"      .......OOO...OOOO...      ",
"         .OOOOOOO..OOOOOOO.     ",
"         .OOOOOOOOOOOOOOO...    ",
"         .OOOOOOOOOOO.O.O...    ",
"         .OOOOOOOOOO.O.OO...    ",
"          .OOOOOOOOOOOOOOO.     ",
"           .OOOOOOOO......      ",
"            ........            ",
"           .OOOOOO.             ",
"          .OOOOOOO...           ",
"         .OOOO.O.OOOO.          ",
"         .OOOOO.O..OO.          ",
"         .OOOOO.OOO..           ",
"    ... .OOOOO.OOOOO.           ",
"  ..@@o.OOOOO.XXXXOOO.          ",
" .@@o@@o.OOOOO..XXXO...         ",
".@o@@o@@.OOOOOOO.XXOOOO.        "
};
